<svg id="Laag_1" data-name="Laag 1" xmlns="http://www.w3.org/2000/svg" viewBox="0 0 596.14 842.09"><rect width="595.28" height="25.11" style="fill:#ca494d"/><polygon points="595.28 58.65 433.3 58.65 402.7 35.3 595.28 35.3 595.28 58.65" style="fill:#b3b2b2"/><polygon points="595.28 92.18 510.12 92.18 479.52 68.84 595.28 68.84 595.28 92.18" style="fill:#ca494d"/><rect x="0.86" y="816.86" width="595.28" height="25.11" transform="translate(597 1658.95) rotate(180)" style="fill:#ca494d"/><polygon points="0.86 783.45 162.84 783.45 193.44 806.79 0.86 806.79 0.86 783.45" style="fill:#b3b2b2"/><polygon points="0.86 749.91 86.01 749.91 116.61 773.25 0.86 773.25 0.86 749.91" style="fill:#ca494d"/><path d="M6.05,46.85h197v104H6.05Z" transform="translate(0 0.13)" style="fill:#fff;fill-rule:evenodd"/><path d="M132.76,110c1.75,0,2.48-.57,2.48-2.33s-.73-2-2.48-2h-1.3V110Zm.73,2.69h-2v4.16h-3.21v-14h5.11c3.19,0,5.24,1,5.24,4.66a4.44,4.44,0,0,1-2.26,4.09h0l3.34,5.23h-3.53Zm15.69-9.83v8.3l-5.26-8.3H141v14h3.21v-8.3l5.24,8.3h2.93v-14Zm-26.56,6.62c0-2.39-.65-4-3.06-4s-3.06,1.6-3.06,4v.6c0,2.4.65,4.14,3.06,4.14s3.06-1.74,3.06-4.14Zm3.36,0v.6c0,4.29-2.13,6.92-6.42,6.92s-6.42-2.63-6.42-6.92v-.6c0-4.29,2.11-6.77,6.42-6.77S126,105.23,126,109.52Zm-17.7,0c0-2.39-.65-4-3.06-4s-3.06,1.6-3.06,4v.6c0,2.4.66,4.14,3.06,4.14s3.06-1.74,3.06-4.14Zm3.36,0v.6c0,4.29-2.13,6.92-6.42,6.92s-6.41-2.63-6.41-6.92v-.6c0-4.29,2.1-6.77,6.41-6.77S111.64,105.23,111.64,109.52ZM93.33,102.9h3.2v14h-3.2v-5.84h-5v5.84h-3.2v-14h3.2v5.39h5V102.9Z" transform="translate(0 0.13)" style="fill:#ca484d;fill-rule:evenodd"/><path d="M84.57,93.05V91.59c0-4.44,3.43-6.42,7.45-6.42a12.81,12.81,0,0,1,4.37.73v2.78h-.15A13.47,13.47,0,0,0,91.87,88c-2.34,0-3.94,1.31-3.94,3.64v1.46a3.4,3.4,0,0,0,3.49,3.64h.73a10.93,10.93,0,0,0,1.32-.13v-2.2h-2V91.59h5v7.08a13.09,13.09,0,0,1-4.24.8h-.73c-4.15,0-6.85-2.26-6.85-6.42Zm14.58,2.48V85.32h9.06v2.76h-5.85v2.78h5.25v2.77h-5.25V95c0,1.16.3,1.61,1.46,1.61h4.67v2.76h-5.83c-2.33,0-3.51-1.45-3.51-3.79Zm12-10.21h3.21l3.72,5.32,3.86-5.32h3.22v14h-3.22v-9L118.42,95h-.88l-3.21-4.59v9h-3.21v-14ZM128,95.53V85.32h9.05v2.76h-5.84v2.78h5.25v2.77h-5.25V95c0,1.16.3,1.61,1.46,1.61h4.67v2.76h-5.83c-2.34,0-3.51-1.45-3.51-3.79Zm12,0V85.32h9.05v2.76h-5.84v2.78h5.25v2.77h-5.25V95c0,1.16.3,1.61,1.46,1.61h4.66v2.76h-5.82c-2.34,0-3.51-1.45-3.51-3.79Zm12-10.21h2.91l5.27,8.31V85.32h3.21v14h-2.93L155.19,91v8.31H152v-14Zm16.93,2.76h-3.79V85.32h10.8v2.76h-3.79V99.32h-3.22V88.08Zm8.74,7.45V85.32h9.06v2.76h-5.85v2.78h5.25v2.77h-5.25V95c0,1.16.3,1.61,1.46,1.61H187v2.76h-5.83c-2.33,0-3.51-1.45-3.51-3.79Z" transform="translate(0 0.13)" style="fill:#b3b2b2;fill-rule:evenodd"/><path d="M61.64,102l-.08,0-4.69-8.87-3,6a5.19,5.19,0,0,1-.28-1.61H53.5L56.25,92l-1-2v0h0A1.8,1.8,0,0,1,56,87.6a1.75,1.75,0,0,1,.78-.18,1.8,1.8,0,0,1,1.8,1.81,1.86,1.86,0,0,1-.22.86L57.46,92l5,9.41a5.67,5.67,0,0,1-.79.6M56.82,88.5a.73.73,0,0,0-.72.73.7.7,0,0,0,.07.31l.67,1.27.61-1.23a.72.72,0,0,0-.63-1.08" transform="translate(0 0.13)" style="fill:#286fa2;fill-rule:evenodd"/><path d="M42.55,99.71h-.07a7.7,7.7,0,0,1-2.87-6V87.5h0a2.85,2.85,0,1,0-5.69-.37v.2a5.28,5.28,0,0,1,2.2,4.29,5.42,5.42,0,0,1-.38,2h0a6.19,6.19,0,1,1,6.83-8.29V99.71Zm7.9,6.27-1.07-.92-.26-.27,5.26-4.52a5.27,5.27,0,0,0,2.46,2.13V108h-.16A10.43,10.43,0,0,1,50.45,106Z" transform="translate(0 0.13)" style="fill:#ca484d;fill-rule:evenodd"/><path d="M49.38,105.06l1.07.92v2.07a.94.94,0,0,1,.4.76.88.88,0,0,1-.07.32L52.09,112H51.5l-1-2.26.35,2.26h-.55l-.34-2.27h0L49.56,112H49l.35-2.26-1,2.26h-.59l1.31-2.88a1.14,1.14,0,0,1-.07-.32.94.94,0,0,1,.4-.76Zm13.9.62,1.08-1v3.33a1,1,0,0,1,.33,1.09L66,112h-.6l-1-2.26.35,2.26h-.55l-.34-2.27h0L63.46,112h-.54l.34-2.26-1,2.26h-.59L63,109.14a1,1,0,0,1-.06-.33.93.93,0,0,1,.39-.76v-2.37Zm-6.44-3.28,1.08.32V108l-1.08.07V102.4Zm-2.93-3.15.47,1-5.27,4.52-.7-.82ZM61.64,102l.85-.67L65,103.87l-.67.85L61.64,102Z" transform="translate(0 0.13)" style="fill:#f6ab61;fill-rule:evenodd"/><path d="M71.17,100.65V96.14l-.06.09c-.51.61-2.09.12-3.52-1.08s-2.18-2.67-1.67-3.27l.57-.71q-2.59-2.94-5.21-5.85H46.11a10.49,10.49,0,0,1,3.56-3.38,7.16,7.16,0,0,0,1.78-10.87l-1.76,5a1.38,1.38,0,0,1-.9,2.43H47.11a3.7,3.7,0,0,0,.41-1.74c0-1.19-.51-2.14-1.36-2.14s-1.35.91-1.35,2.16v1.73H42V64.07H27.36a.31.31,0,0,1-.3-.32.3.3,0,0,1,.26-.3l14.68-2V58a.46.46,0,0,1,.76-.34l2.55,2.71a1.41,1.41,0,0,0,1.13.44h.15A3.92,3.92,0,0,1,48,58.73a3.83,3.83,0,0,1,.84-.48,5.06,5.06,0,0,1,1-.29,3.88,3.88,0,0,0-.37,1.43,4.46,4.46,0,0,0,.13,1.36h0a3.6,3.6,0,0,1,.54-.87,3.68,3.68,0,0,1,.82-.75,4.17,4.17,0,0,1,2.3-.69,4.23,4.23,0,0,0-.68,2.71h0a3.5,3.5,0,0,1,.66-.78,3.83,3.83,0,0,1,.93-.61,4.05,4.05,0,0,1,1.13-.32A4.1,4.1,0,0,1,56,59.4a4.6,4.6,0,0,1,.64.05A4.18,4.18,0,0,0,55.54,62l0,0a3.78,3.78,0,0,1,1.8-1.12,3.69,3.69,0,0,1,1.16-.14,4.52,4.52,0,0,1,1.24.2,4.29,4.29,0,0,0-1.49,2.37l0,0a3.73,3.73,0,0,1,1.95-.82,4.57,4.57,0,0,1,1.17,0,4.7,4.7,0,0,1,1.2.4,4.2,4.2,0,0,0-1.85,2.11l0,0a4.13,4.13,0,0,1,.95-.39,3.71,3.71,0,0,1,1.1-.11,4.21,4.21,0,0,1,2.27.8A4.19,4.19,0,0,0,63,67.2l0,0a3.79,3.79,0,0,1,2.11-.17,3.11,3.11,0,0,1,.56.15q.27.1.54.24c.18.1.35.21.53.33s.32.27.48.42a4.28,4.28,0,0,0-2.4,1.43l0,0a3.91,3.91,0,0,1,1-.08,4.2,4.2,0,0,1,1.08.24,4.28,4.28,0,0,1,1.91,1.46,4.21,4.21,0,0,0-2.6,1v0a4,4,0,0,1,.49,0,4.51,4.51,0,0,1,.53.09,3.67,3.67,0,0,1,1,.4,3.89,3.89,0,0,1,.92.72,4.34,4.34,0,0,1,.73,1,4.19,4.19,0,0,0-2.73.61v0a3.83,3.83,0,0,1,2,.81,3.78,3.78,0,0,1,.79.85A4.77,4.77,0,0,1,70.57,78a4,4,0,0,0-1.46-.15,4.72,4.72,0,0,0-1.33.33v0a3.89,3.89,0,0,1,1.4.72,3.79,3.79,0,0,1,1,1.25l.95-.14A2.39,2.39,0,0,1,73.82,82l2.71,10.12a4.82,4.82,0,0,1,.1,2.07l-.55,3.36h0a3.43,3.43,0,0,1-2.77,2.76l-1.75.33-.39.06Zm-6.81,4.07L61.64,102l-.08,0a5.22,5.22,0,0,1-3.64.67V108a10.46,10.46,0,0,0,5.36-2.28ZM53.5,97.57H46.22a10.38,10.38,0,0,0,2.19,6.4l5.5-4.72,0,0,0,0a5.19,5.19,0,0,1-.28-1.61Zm13.63,0h-3a5.22,5.22,0,0,1-1.6,3.76L65,103.87a10.35,10.35,0,0,0,2.1-6.29Zm12,27.27h0l-3-3.17-8-4.55,6-8.29A4.42,4.42,0,0,0,73,102.67h0a4.52,4.52,0,0,0-1.9-.75c-.15,4.44-1.33,7.94-3.53,10.4-2.42,2.71-6,4.09-10.74,4.09s-8.35-1.38-10.77-4.09c-2.29-2.56-3.47-6.28-3.53-11a6.65,6.65,0,0,0-.89.41,4.43,4.43,0,0,0-1.62,6l4.6,8.07-7.4,4.94-3.86,3.83h.07a.89.89,0,0,0-.18.5c0,.93,1.78,1.68,4,1.68s4-.75,4-1.68v-2.22l7.7-3.6a2.63,2.63,0,0,0,1.5-2,20.49,20.49,0,0,0,5.73.75,21.5,21.5,0,0,0,4.75-.5,2.79,2.79,0,0,0,1.5,2.53l9.13,3.9v1.51c0,.92,1.77,1.67,4,1.67s4-.75,4-1.67a.91.91,0,0,0-.28-.62ZM44.49,68.52a1.26,1.26,0,1,0-1.25-1.26,1.25,1.25,0,0,0,1.25,1.26ZM62.74,80l7.36,9.93A4.52,4.52,0,0,1,71,92.21l.3,3.42a.83.83,0,0,1-.05.41l1-.28a1.11,1.11,0,0,0,.76-1.36l-1.75-6.16V85.32h-3l-4.48-6a2.67,2.67,0,0,0-3.54-.71L55,81.38,60,79.24a2.26,2.26,0,0,1,2.71.75Z" transform="translate(0 0.13)" style="fill:#ca484d;fill-rule:evenodd"/><path d="M67.75,80.52l2.43-.33a3.79,3.79,0,0,0-1-1.25,3.89,3.89,0,0,0-1.4-.72v0a4.7,4.7,0,0,1,1.33-.32,3.79,3.79,0,0,1,1.46.14A4.41,4.41,0,0,0,70,76.88a4,4,0,0,0-.79-.85,3.83,3.83,0,0,0-2-.81v0A4.19,4.19,0,0,1,70,74.58a4.38,4.38,0,0,0-.73-1,4,4,0,0,0-.92-.72,3.45,3.45,0,0,0-1-.4,4.51,4.51,0,0,0-.53-.09,4,4,0,0,0-.49,0v0a4.21,4.21,0,0,1,2.6-1A4.28,4.28,0,0,0,67,69.81a4,4,0,0,0-1.08-.24,4.43,4.43,0,0,0-1,.08l0,0a4.28,4.28,0,0,1,2.4-1.43,4.81,4.81,0,0,0-.48-.42,5.84,5.84,0,0,0-.53-.33q-.27-.14-.54-.24c-.19-.06-.37-.11-.56-.15a3.79,3.79,0,0,0-2.11.17l0,0a4.19,4.19,0,0,1,2.15-1.79,4.21,4.21,0,0,0-2.27-.8,3.71,3.71,0,0,0-1.1.11,4.13,4.13,0,0,0-.95.39l0,0A4.2,4.2,0,0,1,62.63,63a5,5,0,0,0-1.2-.4,4.16,4.16,0,0,0-1.17,0,3.75,3.75,0,0,0-1.95.82l0,0A4.29,4.29,0,0,1,59.77,61a4,4,0,0,0-1.24-.2,4.1,4.1,0,0,0-1.16.14,3.67,3.67,0,0,0-1,.45,3.9,3.9,0,0,0-.79.67l0,0a4.18,4.18,0,0,1,1.1-2.57A4.6,4.6,0,0,0,56,59.4a4.6,4.6,0,0,0-1.75.37,3.83,3.83,0,0,0-.93.61,3.5,3.5,0,0,0-.66.78h0a4.23,4.23,0,0,1,.68-2.71,4.19,4.19,0,0,0-2.3.69,3.66,3.66,0,0,0-.82.75,3.94,3.94,0,0,0-.54.87h0a4.83,4.83,0,0,1-.13-1.36A3.88,3.88,0,0,1,49.85,58a5,5,0,0,0-1,.29,4.35,4.35,0,0,0-.84.48,3.83,3.83,0,0,0-1.42,2.08h-.15" transform="translate(0 0.13)" style="fill:#f5ab62;fill-rule:evenodd"/><path d="M68.07,81.25V80.08A19.37,19.37,0,0,0,48.7,60.71c-.56,0-1.41,0-2.11.1,0,0-.88.06-.91.08" transform="translate(0 0.13)" style="fill:#ca484d;fill-rule:evenodd"/><path d="M36.11,91.62a5.28,5.28,0,0,0-2.2-4.29H30.56c0,.06,0,.11,0,.17a6.2,6.2,0,0,0,5.17,6.11A5.23,5.23,0,0,0,36.11,91.62Z" transform="translate(0 0.13)" style="fill:#f5ab62;fill-rule:evenodd"/></svg>