<?xml version="1.0" encoding="utf-8"?>
<!-- Generator: Adobe Illustrator 25.0.1, SVG Export Plug-In . SVG Version: 6.00 Build 0)  -->
<svg version="1.1" id="Laag_1" xmlns="http://www.w3.org/2000/svg" xmlns:xlink="http://www.w3.org/1999/xlink" x="0px" y="0px"
	 viewBox="0 0 197 104" style="enable-background:new 0 0 197 104;" xml:space="preserve">
<style type="text/css">
	.st0{fill-rule:evenodd;clip-rule:evenodd;fill:#CA464C;}
	.st1{fill-rule:evenodd;clip-rule:evenodd;fill:#B2B2B2;}
	.st2{fill-rule:evenodd;clip-rule:evenodd;fill:#266EA1;}
	.st3{fill-rule:evenodd;clip-rule:evenodd;fill:#F6AB62;}
	.st4{fill-rule:evenodd;clip-rule:evenodd;fill:#F5AB63;}
</style>
<g>
	<path class="st0" d="M126.7,63.2c1.8,0,2.5-0.6,2.5-2.3c0-1.8-0.7-2.1-2.5-2.1h-1.3v4.4H126.7z M127.4,65.9h-2V70h-3.2v-14h5.1
		c3.2,0,5.2,1,5.2,4.7c0,2.2-1.1,3.4-2.3,4.1l0,0l3.3,5.2h-3.5C130.1,70,127.4,65.9,127.4,65.9z M143.1,56.1v8.3l-5.3-8.3H135v14
		h3.2v-8.3l5.2,8.3h2.9v-14L143.1,56.1L143.1,56.1z M116.6,62.7c0-2.4-0.7-4-3.1-4c-2.4,0-3.1,1.6-3.1,4v0.6c0,2.4,0.7,4.1,3.1,4.1
		c2.4,0,3.1-1.7,3.1-4.1C116.6,63.3,116.6,62.7,116.6,62.7z M119.9,62.7v0.6c0,4.3-2.1,6.9-6.4,6.9c-4.3,0-6.4-2.6-6.4-6.9v-0.6
		c0-4.3,2.1-6.8,6.4-6.8C117.8,55.9,119.9,58.4,119.9,62.7z M102.2,62.7c0-2.4-0.7-4-3.1-4s-3.1,1.6-3.1,4v0.6
		c0,2.4,0.7,4.1,3.1,4.1s3.1-1.7,3.1-4.1C102.2,63.3,102.2,62.7,102.2,62.7z M105.6,62.7v0.6c0,4.3-2.1,6.9-6.4,6.9
		c-4.3,0-6.4-2.6-6.4-6.9v-0.6c0-4.3,2.1-6.8,6.4-6.8C103.5,55.9,105.6,58.4,105.6,62.7z M87.3,56.1h3.2v14h-3.2v-5.8h-5V70h-3.2
		v-14h3.2v5.4h5V56.1L87.3,56.1z"/>
	<path class="st1" d="M78.5,46.2v-1.5c0-4.4,3.4-6.4,7.5-6.4c1.5,0,3,0.2,4.4,0.7v2.8h-0.2c-1.4-0.5-3.1-0.7-4.4-0.7
		c-2.3,0-3.9,1.3-3.9,3.6v1.5c0,2.1,1.4,3.6,3.5,3.6h0.7c0.3,0,1-0.1,1.3-0.1v-2.2h-2.1v-2.8h5v7.1c-0.7,0.3-2.5,0.8-4.2,0.8h-0.7
		C81.2,52.6,78.5,50.4,78.5,46.2L78.5,46.2z M93.1,48.7V38.5h9.1v2.8h-5.8V44h5.2v2.8h-5.2v1.3c0,1.2,0.3,1.6,1.5,1.6h4.7v2.8h-5.8
		C94.3,52.5,93.1,51,93.1,48.7L93.1,48.7z M105.1,38.5h3.2l3.7,5.3l3.9-5.3h3.2v14h-3.2v-9l-3.5,4.6h-0.9l-3.2-4.6v9h-3.2
		L105.1,38.5L105.1,38.5z M122,48.7V38.5h9.1v2.8h-5.8V44h5.2v2.8h-5.2v1.3c0,1.2,0.3,1.6,1.5,1.6h4.7v2.8h-5.8
		C123.2,52.5,122,51,122,48.7L122,48.7z M134,48.7V38.5h9.1v2.8h-5.8V44h5.2v2.8h-5.2v1.3c0,1.2,0.3,1.6,1.5,1.6h4.7v2.8h-5.8
		C135.1,52.5,134,51,134,48.7L134,48.7z M145.9,38.5h2.9l5.3,8.3v-8.3h3.2v14h-2.9l-5.2-8.3v8.3h-3.2V38.5L145.9,38.5z M162.9,41.2
		h-3.8v-2.8h10.8v2.8h-3.8v11.2h-3.2L162.9,41.2L162.9,41.2z M171.6,48.7V38.5h9.1v2.8h-5.8V44h5.2v2.8h-5.2v1.3
		c0,1.2,0.3,1.6,1.5,1.6h4.7v2.8h-5.8C172.8,52.5,171.6,51,171.6,48.7L171.6,48.7z"/>
	<path class="st2" d="M55.6,55.2L55.6,55.2l-4.8-8.8l-3,6c-0.2-0.5-0.3-1.1-0.3-1.6h-0.1l2.8-5.6l-1-2l0,0l0,0
		c-0.4-0.9-0.1-2,0.8-2.4c0.2-0.1,0.5-0.2,0.8-0.2c1,0,1.8,0.8,1.8,1.8c0,0.3-0.1,0.6-0.2,0.9l-0.9,1.9l5,9.4
		C56.1,54.8,55.9,55,55.6,55.2 M50.8,41.7c-0.4,0-0.7,0.3-0.7,0.7c0,0.1,0,0.2,0.1,0.3l0.7,1.3l0.6-1.2c0.2-0.3,0.1-0.8-0.3-1
		C51,41.7,50.9,41.7,50.8,41.7"/>
	<path class="st0" d="M36.5,52.9L36.5,52.9c-1.9-1.5-2.9-3.7-2.9-6v-6.2h0c0.1-1.6-1.1-2.9-2.7-3c-1.6-0.1-2.9,1.1-3,2.7
		c0,0.1,0,0.1,0,0.2c1.4,1,2.2,2.6,2.2,4.3c0,0.7-0.1,1.4-0.4,2l0,0c-3.4-0.6-5.6-3.8-5.1-7.1c0.5-3,3.1-5.1,6.1-5.2
		c2.6,0,4.9,1.6,5.8,4L36.5,52.9L36.5,52.9z M44.4,59.1l-1.1-0.9c-0.1-0.1-0.2-0.2-0.3-0.3l5.3-4.5c0.6,0.9,1.4,1.7,2.5,2.1v5.6
		c-0.1,0-0.1,0-0.2,0C48.3,61.2,46.1,60.4,44.4,59.1z"/>
	<path class="st3" d="M43.3,58.2l1.1,0.9v2.1c0.2,0.2,0.4,0.5,0.4,0.8c0,0.1,0,0.2-0.1,0.3l1.3,2.9h-0.6l-1-2.3l0.3,2.3h-0.5
		l-0.3-2.3l0,0h0l-0.3,2.3H43l0.3-2.3l-1,2.3h-0.6l1.3-2.9c0-0.1-0.1-0.2-0.1-0.3c0-0.3,0.2-0.6,0.4-0.8
		C43.3,61.2,43.3,58.2,43.3,58.2z M57.2,58.8l1.1-1v3.3c0.3,0.2,0.5,0.7,0.3,1.1l1.3,2.9h-0.6l-1-2.3l0.3,2.3h-0.5l-0.3-2.3h0
		l-0.3,2.3h-0.5l0.3-2.3l-1,2.3h-0.6l1.3-2.9c0-0.1-0.1-0.2-0.1-0.3c0-0.3,0.2-0.6,0.4-0.8V58.8L57.2,58.8z M50.8,55.6l1.1,0.3v5.2
		l-1.1,0.1V55.6L50.8,55.6z M47.9,52.4l0.5,1l-5.3,4.5l-0.7-0.8C42.4,57.1,47.9,52.4,47.9,52.4z M55.6,55.2l0.9-0.7L59,57l-0.7,0.9
		L55.6,55.2L55.6,55.2z"/>
	<path class="st0" d="M65.1,53.8v-4.5c0,0,0,0.1-0.1,0.1c-0.5,0.6-2.1,0.1-3.5-1.1c-1.4-1.2-2.2-2.7-1.7-3.3l0.6-0.7
		c-1.7-2-3.5-3.9-5.2-5.8H40.1c0.7-1.3,1.9-2.3,3.6-3.4c2.4-1.6,3.5-3.6,3.5-6.4c0-1.7-0.7-3.3-1.8-4.5l-1.8,5
		c0.6,0.5,0.6,1.4,0.1,1.9c-0.3,0.3-0.6,0.5-1,0.5l-1.7,0c0.3-0.4,0.4-1.1,0.4-1.7c0-1.2-0.5-2.1-1.4-2.1c-0.9,0-1.3,0.9-1.3,2.2
		v1.7H36V17.2H21.3c-0.2,0-0.3-0.1-0.3-0.3c0-0.2,0.1-0.3,0.3-0.3l14.7-2v-3.4c0-0.4,0.5-0.6,0.8-0.3l2.6,2.7
		c0.3,0.3,0.7,0.5,1.1,0.4l0.2,0c0.2-0.8,0.7-1.6,1.4-2.1c0.3-0.2,0.5-0.4,0.8-0.5c0.3-0.1,0.6-0.2,1-0.3c-0.2,0.5-0.3,0.9-0.4,1.4
		c0,0.5,0,0.9,0.1,1.4l0,0c0.1-0.3,0.3-0.6,0.5-0.9c0.2-0.3,0.5-0.5,0.8-0.7c0.7-0.5,1.5-0.7,2.3-0.7c-0.6,0.8-0.7,1.8-0.7,2.7l0,0
		c0.2-0.3,0.4-0.5,0.7-0.8c0.3-0.2,0.6-0.4,0.9-0.6c0.4-0.2,0.7-0.3,1.1-0.3c0.2,0,0.4,0,0.6,0c0.2,0,0.4,0,0.6,0.1
		c-0.7,0.7-1,1.6-1.1,2.6l0,0c0.2-0.3,0.5-0.5,0.8-0.7c0.3-0.2,0.7-0.3,1-0.4c0.4-0.1,0.8-0.2,1.2-0.1c0.4,0,0.8,0.1,1.2,0.2
		c-0.8,0.6-1.3,1.5-1.5,2.4l0,0c0.6-0.5,1.2-0.7,2-0.8c0.4,0,0.8,0,1.2,0c0.4,0.1,0.8,0.2,1.2,0.4c-0.9,0.5-1.5,1.3-1.8,2.1l0,0
		c0.3-0.2,0.6-0.3,1-0.4c0.4-0.1,0.7-0.1,1.1-0.1c0.8,0,1.6,0.3,2.3,0.8c-1,0.3-1.7,1-2.1,1.8l0,0c0.7-0.3,1.4-0.3,2.1-0.2
		c0.2,0,0.4,0.1,0.6,0.2c0.2,0.1,0.4,0.1,0.5,0.2c0.2,0.1,0.4,0.2,0.5,0.3c0.2,0.1,0.3,0.3,0.5,0.4c-1,0.2-1.8,0.7-2.4,1.4l0,0
		c0.3-0.1,0.7-0.1,1-0.1c0.4,0,0.7,0.1,1.1,0.2c0.7,0.3,1.4,0.8,1.9,1.5c-1,0-1.9,0.4-2.6,1l0,0c0.2,0,0.3,0,0.5,0
		c0.2,0,0.4,0,0.5,0.1c0.4,0.1,0.7,0.2,1,0.4c0.3,0.2,0.6,0.4,0.9,0.7c0.3,0.3,0.5,0.6,0.7,1c-1-0.1-1.9,0.1-2.7,0.6l0,0
		c0.7,0.1,1.4,0.4,2,0.8c0.3,0.2,0.6,0.5,0.8,0.9c0.2,0.3,0.4,0.7,0.6,1.1C64,31,63.6,31,63.1,31c-0.5,0-0.9,0.2-1.3,0.3
		c0,0,0,0,0,0c0.5,0.1,1,0.4,1.4,0.7c0.4,0.3,0.8,0.8,1,1.2l0.9-0.1c1.3-0.2,2.4,0.7,2.7,1.9l2.7,10.1c0.2,0.7,0.2,1.4,0.1,2.1
		L70,50.7v0c-0.3,1.4-1.4,2.5-2.8,2.8l-1.8,0.3L65.1,53.8L65.1,53.8z M58.3,57.9l-2.7-2.7l-0.1,0c-1.1,0.7-2.4,0.9-3.6,0.7v5.2
		c2-0.2,3.8-1,5.4-2.3C57.2,58.8,58.3,57.9,58.3,57.9z M47.5,50.7h-7.3c0,2.4,0.8,4.6,2.2,6.4l5.5-4.7c0,0,0,0,0,0l0,0
		c-0.2-0.5-0.3-1.1-0.3-1.6C47.6,50.7,47.5,50.7,47.5,50.7z M61.1,50.7h-3c0,1.4-0.6,2.8-1.6,3.8L59,57C60.3,55.2,61.1,53,61.1,50.7
		L61.1,50.7z M73.1,78L73.1,78l-3.1-3.2l-8-4.5l6-8.3c1.4-2,0.9-4.8-1.1-6.2c0,0,0,0,0,0c-0.7-0.5-1.3-0.7-1.9-0.7
		c-0.2,4.4-1.3,7.9-3.5,10.4c-2.4,2.7-6,4.1-10.7,4.1c-4.7,0-8.3-1.4-10.8-4.1c-2.3-2.6-3.5-6.3-3.5-11c-0.3,0.1-0.6,0.3-0.9,0.4
		c-2.1,1.2-2.8,3.9-1.6,6l4.6,8.1l-7.4,4.9l-3.9,3.8l0.1,0c-0.1,0.1-0.2,0.3-0.2,0.5c0,0.9,1.8,1.7,4,1.7s4-0.8,4-1.7V76l7.7-3.6
		c0.8-0.4,1.4-1.1,1.5-2c1.7,0.5,3.6,0.8,5.7,0.8c1.7,0,3.3-0.2,4.8-0.5c0,1.1,0.6,2,1.5,2.5l9.1,3.9v1.5c0,0.9,1.8,1.7,4,1.7
		s4-0.8,4-1.7C73.4,78.4,73.3,78.2,73.1,78L73.1,78z M38.4,21.7c0.7,0,1.3-0.6,1.3-1.3c0-0.7-0.6-1.3-1.3-1.3
		c-0.7,0-1.3,0.6-1.3,1.3C37.2,21.1,37.8,21.7,38.4,21.7L38.4,21.7z M56.7,33.1l7.4,9.9c0.5,0.7,0.8,1.5,0.9,2.3l0.3,3.4
		c0,0.1,0,0.3,0,0.4l0.9-0.3c0.6-0.2,0.9-0.8,0.8-1.4l-1.8-6.2v-2.9h-3l-4.5-6c-0.9-1.2-2.3-1.4-3.5-0.7l-5.2,2.8l5.1-2.1
		C54.9,32,56.1,32.3,56.7,33.1L56.7,33.1z"/>
	<path class="st4" d="M61.7,33.7l2.4-0.3c-0.2-0.5-0.6-0.9-1-1.2c-0.4-0.3-0.9-0.6-1.4-0.7l0,0c0.4-0.2,0.9-0.3,1.3-0.3
		c0.5,0,1,0,1.5,0.1c-0.1-0.4-0.3-0.8-0.6-1.1c-0.2-0.3-0.5-0.6-0.8-0.9c-0.6-0.4-1.2-0.7-2-0.8l0,0c0.8-0.5,1.7-0.8,2.7-0.6
		c-0.2-0.4-0.4-0.7-0.7-1c-0.3-0.3-0.6-0.5-0.9-0.7c-0.3-0.2-0.7-0.3-1-0.4c-0.2,0-0.4-0.1-0.5-0.1c-0.2,0-0.3,0-0.5,0l0,0
		c0.7-0.6,1.6-1,2.6-1c-0.5-0.7-1.2-1.2-1.9-1.5c-0.3-0.1-0.7-0.2-1.1-0.2c-0.3,0-0.7,0-1,0.1c0,0,0,0,0,0c0.6-0.7,1.4-1.2,2.4-1.4
		c-0.2-0.1-0.3-0.3-0.5-0.4c-0.2-0.1-0.3-0.2-0.5-0.3c-0.2-0.1-0.4-0.2-0.5-0.2c-0.2-0.1-0.4-0.1-0.6-0.2c-0.7-0.1-1.4-0.1-2.1,0.2
		l0,0c0.5-0.8,1.2-1.5,2.1-1.8c-0.7-0.5-1.4-0.8-2.3-0.8c-0.4,0-0.7,0-1.1,0.1c-0.3,0.1-0.7,0.2-1,0.4c0,0,0,0,0,0
		c0.4-0.8,1-1.6,1.8-2.1c-0.4-0.2-0.8-0.3-1.2-0.4c-0.4-0.1-0.8-0.1-1.2,0c-0.7,0.1-1.4,0.4-2,0.8l0,0c0.2-0.9,0.7-1.7,1.5-2.4
		c-0.4-0.1-0.8-0.2-1.2-0.2c-0.4,0-0.8,0-1.2,0.1c-0.4,0.1-0.7,0.3-1,0.4c-0.3,0.2-0.6,0.4-0.8,0.7l0,0c0.1-0.9,0.4-1.8,1.1-2.6
		c-0.2,0-0.4-0.1-0.6-0.1c-0.2,0-0.4,0-0.6,0c-0.4,0-0.8,0.2-1.1,0.3c-0.3,0.2-0.7,0.4-0.9,0.6c-0.3,0.2-0.5,0.5-0.7,0.8l0,0
		c-0.1-0.9,0.1-1.9,0.7-2.7c-0.9,0-1.7,0.3-2.3,0.7c-0.3,0.2-0.6,0.5-0.8,0.7c-0.2,0.3-0.4,0.6-0.5,0.9l0,0
		c-0.1-0.4-0.1-0.9-0.1-1.4c0-0.5,0.1-1,0.4-1.4c-0.3,0.1-0.7,0.2-1,0.3c-0.3,0.1-0.6,0.3-0.8,0.5c-0.7,0.5-1.2,1.2-1.4,2.1l-0.2,0"
		/>
	<path class="st0" d="M62,34.4v-1.2c0-10.7-8.7-19.4-19.4-19.4c-0.6,0-1.4,0-2.1,0.1c0,0-0.9,0.1-0.9,0.1"/>
	<path class="st4" d="M30.1,44.8c0-1.8-0.9-3.3-2.2-4.3l-3.3,0c0,0.1,0,0.1,0,0.2c0,3,2.2,5.6,5.2,6.1
		C29.9,46.1,30.1,45.5,30.1,44.8z"/>
</g>
</svg>
