<svg id="Laag_1" data-name="Laag 1" xmlns="http://www.w3.org/2000/svg" viewBox="0 0 49.83 41.41"><path d="M29.77,74.56h-1V71.79h1Zm4.51-12.23h-1V59.56h1ZM15.76,57.55c-.08,0-.6,0-.6.11s.24.05.6.11c.79.13,1.11.54,1.67.54a.81.81,0,0,0,.88-.74.83.83,0,0,0,0-.35c0-.12-.1-.09-.12,0a.89.89,0,0,1-.91.52A14.81,14.81,0,0,0,15.76,57.55Zm-5.51,2.77c.08.12,1,1.35-.42,1.82-.07,0-.09.08,0,.12a1.25,1.25,0,0,0,1.59-.37,1.58,1.58,0,0,1-.29,1.91,2.39,2.39,0,0,0,1.4.77,1.89,1.89,0,0,0,.89-.92,1.71,1.71,0,0,1,0,1.05c2.19.2,3-1.55,4.65-1.24.05,0,.07,0,.07-.07a3.5,3.5,0,0,0-2.74-3.45c-2.08-.4-1.53-1.25-1.53-1.25a2.26,2.26,0,0,1,1.39.34.49.49,0,0,0-.07-.54,1.22,1.22,0,0,0,.13-.46c-1,0-1.24-.22-1.24-.22-.15-.58.25-1.41,1.72-.52a1.17,1.17,0,0,0,.34-.83.42.42,0,0,0,.18-.3c0-.24-1.18-.9-1.48-1-.07-.35-.52-.87-1.9-.68-.66.08-1.13-.09-.91-.47,0-.06-.08-.08-.14,0a.54.54,0,0,0,.22.86,1.22,1.22,0,0,1,.67,1c0,.14-.15.15-.19,0a1.75,1.75,0,0,0-2.34-.81,1.28,1.28,0,0,0-.25.15,1.16,1.16,0,0,0,1,.95.49.49,0,0,0,.46-.46c0-.13.07-.12.11,0a.78.78,0,0,1-.7.85.76.76,0,0,1-.56-.16,2.25,2.25,0,0,0-.43,2.29c.16.7-.18,1.37-.81,1.06H9a.79.79,0,0,0,.85.72A.77.77,0,0,0,10.25,60.32ZM14.94,56c-.4.45-1,.34-1.2-.39C14.56,55.59,14.91,55.67,14.94,56Zm25.37,1.71a.89.89,0,0,1-.91-.52c0-.08-.08-.11-.12,0a.8.8,0,0,0,.48,1,.83.83,0,0,0,.35.05c.56,0,.88-.41,1.68-.54.35-.06.59,0,.59-.11s-.52-.11-.59-.11c-.79,0-.95.21-1.48.21Zm8.23,2c0-.07,0-.06-.07,0-.62.31-1-.36-.81-1.06a2.25,2.25,0,0,0-.43-2.29A.77.77,0,0,1,46,55.68c0-.1.1-.12.1,0a.48.48,0,0,0,.46.46,1.14,1.14,0,0,0,1-1,1.76,1.76,0,0,0-2.45.43,2.28,2.28,0,0,0-.17.3.1.1,0,1,1-.19,0,1.26,1.26,0,0,1,.68-1c.57-.29.36-.72.21-.87s-.18,0-.14,0c.22.38-.25.55-.9.47-1.38-.19-1.83.32-1.91.68-.3.08-1.47.74-1.47,1a.42.42,0,0,0,.18.3,1.09,1.09,0,0,0,.34.82c1.46-.88,1.87-.06,1.72.53A2.26,2.26,0,0,1,42.2,58a1.37,1.37,0,0,0,.13.45.52.52,0,0,0-.06.55,2.24,2.24,0,0,1,1.38-.34s.56.85-1.52,1.25a3.49,3.49,0,0,0-2.75,3.45.07.07,0,0,0,.08.07c1.68-.31,2.46,1.44,4.64,1.24a1.58,1.58,0,0,1,0-1.05,1.83,1.83,0,0,0,.88.92,2.39,2.39,0,0,0,1.4-.77,1.61,1.61,0,0,1-.29-1.91,1.25,1.25,0,0,0,1.59.37c.1,0,.08-.1,0-.12-1.46-.47-.51-1.7-.42-1.82a.79.79,0,0,0,1.11-.12.88.88,0,0,0,.17-.41ZM43.8,55.63c-.15.73-.8.84-1.2.39C42.64,55.67,43,55.59,43.8,55.63ZM28.39,43.35a.85.85,0,0,0,.14.44c.13.18.11.28,0,.34s-.16.08-.35-.05a.76.76,0,0,0-.43-.14.4.4,0,0,0-.45.32.39.39,0,0,0,.33.45h.12a.76.76,0,0,0,.43-.14c.19-.13.29-.11.35,0a4.75,4.75,0,0,1-.1,1.19.92.92,0,0,0-.78.77c0,.63.68,1,1.07,1.21.39-.21,1.06-.58,1.06-1.21a.91.91,0,0,0-.77-.77,4.75,4.75,0,0,1-.1-1.19c.06-.06.16-.08.35,0a.77.77,0,0,0,.44.14.4.4,0,0,0,.45-.32.39.39,0,0,0-.33-.45H29.7a.77.77,0,0,0-.44.14c-.19.13-.29.11-.35.05s-.08-.16.05-.34a.85.85,0,0,0,.14-.44.39.39,0,0,0-.76-.18.54.54,0,0,0,0,.18ZM28.77,48a.77.77,0,1,0,.77.77h0A.77.77,0,0,0,28.77,48Zm0,7.37a16.54,16.54,0,0,1,4.8.59c0-1.56,0-2.42.9-2.29-.49-1.3,1.6-1.81,1.6-3.51,0-1.12-.79-1.24-1-1.24-.69,0-.59.44-1.18.44h-.15s.17.53.44.53.37-.36.64-.36.29.09.29.46a3.54,3.54,0,0,1-1,2.14.64.64,0,0,0-.52-.28.71.71,0,0,0-.62.77,1.1,1.1,0,0,0,.08.4,1,1,0,0,1-.47.17.59.59,0,0,1-.63-.54.48.48,0,0,1,0-.12c0-1.23,1.65-2.31,1.65-3.87a1.44,1.44,0,0,0-1.45-1.43H32c-1.11,0-.9,1-1.87,1h-.08s.17.63.67.63S31.4,48,31.87,48c.18,0,.44.1.44.73a5.83,5.83,0,0,1-.58,2,.74.74,0,0,0-.49-.22.81.81,0,0,0-.71.88,1,1,0,0,0,.33.79c-.25.31-.5.57-.83.57-.67,0-1-.38-1-.8s.81-.6.81-1.3a.67.67,0,0,0-.59-.74h0a.92.92,0,0,0-.52.21.8.8,0,0,0-.51-.21.66.66,0,0,0-.61.72v0c0,.7.82.86.82,1.3s-.3.8-1,.8c-.34,0-.59-.26-.83-.57a1.1,1.1,0,0,0,.32-.79.8.8,0,0,0-.71-.88.74.74,0,0,0-.48.22,5.57,5.57,0,0,1-.59-2c0-.63.26-.73.44-.73.47,0,.62.92,1.16.92a.69.69,0,0,0,.66-.63c0-.07,0,0-.08,0-1,0-.76-1-1.87-1A1.43,1.43,0,0,0,24,48.66v.06c0,1.56,1.65,2.64,1.65,3.87a.61.61,0,0,1-.54.66H25a1,1,0,0,1-.47-.17,1.1,1.1,0,0,0,.08-.4.71.71,0,0,0-.62-.77.65.65,0,0,0-.51.28,3.54,3.54,0,0,1-1-2.14c0-.37.16-.46.28-.46s.28.36.64.36a.47.47,0,0,0,.44-.53c0-.19-.08,0-.15,0-.59,0-.48-.44-1.18-.44-.23,0-1,.12-1,1.24,0,1.7,2.09,2.21,1.6,3.51.9-.13.88.74.9,2.29a16.2,16.2,0,0,1,4.75-.63Zm-5.62,2.29c-.84.18-1.44.35-1.71.43a.73.73,0,0,1,.49-.78v-.09c-.74-.5-1.14.45-1.16.48-.26,0-.66.06-.66.42,0,1.06-2.44,1.66-3,1.74a2.92,2.92,0,0,1,1.41,1.64,6.44,6.44,0,0,1,1.75-1.36c.19,0,.27.24.28.39s.05.06.08,0c.38-.57.2-.69.17-.86a.49.49,0,0,1,.37-.57h.19v7.12h-.28c-.13,0-1.17-.86-2.36-1.68s-1.83-.33-3.19.4A4.23,4.23,0,0,1,12,65c-1.53,1.1-2,4.26-2,4.26a3.59,3.59,0,0,1-1.29.27c-1.17,0-1.39-.71-1.39-1.13,0-1.8,2.27-2.58,2.27-4.36A2.17,2.17,0,0,0,7.25,62H5.19a1.16,1.16,0,0,1-1.14-.81c0-.09-.13,0-.09,0s-.1.38-.1.83a1.09,1.09,0,0,0,1,1.16h.22a2,2,0,0,0,.8-.16C6,63,6,63,6,63.08a1.45,1.45,0,0,0-.23,1.33h.08a2,2,0,0,1,1.88-1.48,1.11,1.11,0,0,1,1.18,1,1.62,1.62,0,0,1,0,.22c0,1.45-2.55,2.51-2.55,4.5s2.14,2.46,3.38,2.14c-.08,2-2.39,2.71-2.46,1.26,0-.07-.06-.08-.09,0-.3.71-.18,1.34.72,1.54.06,0,0,0,0,.09-.89.57-.4,2.79-.36,3.45.07,1-.87.83-1,.8s-.08,0,0,.08A1,1,0,0,0,8,78.17l0,0c.63.19.24.72-.17,1a0,0,0,1,0,0,.09c.06,0,1.05.09,1.23-.68a1,1,0,0,0,1.18.26c.19-.1,1.09-.43,1.18.59,0,.07.05,0,.07,0a.83.83,0,0,0,.09-1.17.8.8,0,0,0-.58-.29.69.69,0,0,1,1,0l.09.12s.06.06.07,0c.06-1.08-.83-1.18-1.4-.71,0-.11-.22-.72.65-.7,0,0,.06,0,0-.08a.83.83,0,0,0-1.17-.13,1,1,0,0,0-.19.22c-.3.36-1,.22-1.11.21.24-3.78,3.56-2.44,4-4.28,0-.1.07-.06.08,0,.12.45,1.25.51,1.46-.37h0c-1,1-3.13-2-.17-4.5A4.3,4.3,0,0,1,20,67.36a.33.33,0,0,1-.21.42h0v.08a.66.66,0,0,0,.74-.16c.54.38.08.86-.14,1-.06,0,0,.07,0,.08a.87.87,0,0,0,.93-.72h.08v2.15c0,3.06,3.53,3.48,7.4,6.07,3.87-2.59,7.4-3,7.4-6.07V68.11h.08a.87.87,0,0,0,.93.72s.07,0,0-.08-.69-.61-.14-1a.65.65,0,0,0,.73.16c.07,0,.06-.06,0-.08a.32.32,0,0,1-.26-.39v0a4.29,4.29,0,0,1,5.65.23c3,2.45.79,5.46-.17,4.5.2.88,1.33.82,1.46.37,0,0,0-.07.07,0,.46,1.84,3.79.5,4,4.28-.07,0-.81.15-1.11-.21a.82.82,0,0,0-1.12-.29.74.74,0,0,0-.23.2v.08c.86,0,.67.59.64.7-.57-.47-1.45-.37-1.39.71,0,.09,0,.08.07,0a.68.68,0,0,1,.95-.21.47.47,0,0,1,.12.09.83.83,0,0,0-.74.91.82.82,0,0,0,.28.54s.07.08.08,0c.09-1,1-.69,1.18-.59a1,1,0,0,0,1.18-.26c.17.77,1.14.69,1.23.68s.07,0,0-.09c-.41-.28-.8-.81-.18-1a1,1,0,0,0,1.41.07A.57.57,0,0,0,51,78c.06-.07,0-.09,0-.08a.72.72,0,0,1-.91-.48.58.58,0,0,1,0-.32c0-.66.52-2.88-.37-3.45-.06,0-.08-.07,0-.09.9-.2,1-.83.72-1.54,0-.09-.09-.08-.09,0-.07,1.45-2.39.76-2.46-1.26,1.24.32,3.37-.12,3.37-2.14s-2.54-3-2.54-4.5a1.09,1.09,0,0,1,.93-1.23,1,1,0,0,1,.24,0,2,2,0,0,1,1.87,1.48h.08a1.42,1.42,0,0,0-.23-1.33s0-.11.08-.07a2.05,2.05,0,0,0,.81.16,1.06,1.06,0,0,0,1.2-.92.81.81,0,0,0,0-.22c0-.45-.15-.68-.09-.83s-.05-.12-.09,0a1.17,1.17,0,0,1-1.14.81H50.42a2.15,2.15,0,0,0-2.36,1.92,2.44,2.44,0,0,0,0,.27c0,1.78,2.26,2.56,2.26,4.36,0,.42-.21,1.13-1.38,1.13a3.6,3.6,0,0,1-1.3-.27s-.51-3.16-2.05-4.26A4.23,4.23,0,0,1,42,65c-1.36-.73-2-1.23-3.19-.4a28.16,28.16,0,0,1-2.37,1.68h-.28V59.14a.49.49,0,0,1,.57.39.54.54,0,0,1,0,.18c0,.17-.22.29.16.86H37c0-.15.09-.39.28-.39A6.18,6.18,0,0,1,39,61.52a2.86,2.86,0,0,1,1.41-1.64c-.57-.08-3-.68-3-1.74,0-.36-.4-.44-.66-.42,0,0-.41-1-1.16-.48v.09c.33.07.47.41.48.78a27.12,27.12,0,0,0-7.33-1.06,26.47,26.47,0,0,0-4.62.43V60h-1V57.68m-6.6,25.26a.64.64,0,0,1-.44-.63V80.78a10.87,10.87,0,0,0-4-.61c-2,0-2.61.45-2.64.6l-.53,2.92s.81-.73,3.69-.54c3.48.22,7.08,2.26,7.08.08V82C16.92,82,16.52,82.81,16.52,82.94ZM37.9,82v1.28c0,2.19,3.6.14,7.07-.08,2.88-.19,3.69.54,3.69.54l-.53-2.91c0-.16-.65-.61-2.64-.61a11.09,11.09,0,0,0-4,.61v1.53a.64.64,0,0,1-.44.63C41,82.81,40.62,82,37.9,82Zm-9.13-1.33c5.59,0,11.28.29,12,1.14.06.07.08,0,.08,0v-3c0-.86-5.86-1.37-12.1-1.37s-12.1.51-12.1,1.37v3s0,.12.08,0c.77-.9,6.45-1.19,12-1.19Zm-5-14-.56-.14v.07l-.66-.29h.59c.06,0,.06,0,0-.07l-.5-.49.65.24-.43-.63.64.43h.05l-.3-.74.57.54h.05c-.05-.26-.16-.75-.16-.75l.43.62h.06v-.69l.27.63h.08a3.89,3.89,0,0,0,.21-.53v.71h-.1l-.11.85c.84-.2,1.89-1.64,2.7-1.64,1,0,1.31,1.12,3.08.55a5.22,5.22,0,0,1,.78,2c.69.65,1.65.43,1.65-.25,0-.92-1-1.1-1-2.06a1,1,0,0,1,1-1h.13c.43,0,1.06.19,1.43.19a.57.57,0,0,0,.58-.45.07.07,0,0,1,.14,0v.41c0,.61-.88.69-1,.62s-.08,0,0,0,.1.47-.05.7a1.33,1.33,0,0,0-1.06-1,.47.47,0,0,0-.49.45v0c0,.54,1.09,1,1.09,2.17s-1.16,1.46-2.33,1.17c0,1.11,1.7,1.77,1.74,1h0c.24.34.13.6-.18.73.29.13.34.72.42,1.06.13.53.69.24.71.22a.59.59,0,0,1-.76.34h0c-.29.21.06.39.33.47v0c-.2.08-.62.21-.82-.14a.55.55,0,0,1-.58.35c-.22,0-.36.22-.31.51a.46.46,0,0,1-.23-.61.47.47,0,0,1,.23-.23.38.38,0,0,0-.51.17l0,.08c-.22-.59.26-.76.62-.61a.55.55,0,0,0-.67-.28.44.44,0,0,1,.73-.17c.21.13.58-.06.61-.08-.74-1.49-2.19-.24-2.51-1.4h-.06c-.07.25-.7.27-.82-.22s.29.18.55-.2a1.49,1.49,0,0,0,.2-.8,2.56,2.56,0,0,0-2.31-2.41A4.48,4.48,0,0,0,25,67l.66.15a1,1,0,0,1-1.06.93,1,1,0,0,1-.24,0l.11-.76a.93.93,0,0,0-.5.32.58.58,0,0,1,.35-.7.63.63,0,0,0-.55.3.5.5,0,0,1,0-.57Zm2,5.15c-.25.31-.47,0-.81,0a.38.38,0,0,0-.37.37h0c-.36-.49,0-.75.27-.78a.4.4,0,0,0-.56,0l0,0c0-.6.46-.64.77-.38.06-.23-.09-.38-.34-.39a.47.47,0,0,1,.31-.16c.33,0,.38.42.59.42a2.55,2.55,0,0,0,.84-.49A3.83,3.83,0,0,1,26.06,69s-.55.08-.55-.41c.18.24.46,0,.6-.19s1-1.37,2.07-1.37a1.68,1.68,0,0,1,.8.31c-.38.46,0,.9.28.85-1.45.54-2.1.76-2.1,2,0,.64.22,1,.59.91a.57.57,0,0,1-.42.22c-.3,0-.36-.17-.52-.17s-.7.32-.7.59a.47.47,0,0,0,.25.36.54.54,0,0,1-.62-.31ZM29.55,60c-.45,0-.74.08-.73.22C29,60.45,29.34,60.43,29.55,60Zm-1.67,1.12a2.12,2.12,0,0,1,.71,0,.05.05,0,1,1,0,.1c-.66.09-.7.4-1.12.4a.54.54,0,0,1-.5-.56.58.58,0,0,1,0-.14c0-.06.06-.06.07,0S27.36,61.26,27.88,61.12ZM19.23,75.91c.44.56.86,0,1.44,0,.28,0,.63.09.69.66h.06a.82.82,0,0,0,0-1.16.88.88,0,0,0-.53-.25.73.73,0,0,1,1,0l0,.05h.07c0-1.1-.82-1.17-1.41-.7-.12-.42.21-.7.62-.7.05,0,.07,0,0-.07-.73-.78-1.28.2-1.4.36-.3.39-1.34-.34-1.76-.77a3.4,3.4,0,0,0,.93-1.86v-.15h0a.67.67,0,0,0,.34.09c.21,0,.61-.07.61-.82h0a.41.41,0,0,1-.33.2c-.75,0-2.3-2.49-4.14-2.49a3.1,3.1,0,0,0-1.84.84.61.61,0,0,1,.24.6.64.64,0,0,1-.54.54s-.05,0,0,.07a18.22,18.22,0,0,1,3,1.32c.45.39.36,1.13.1,2.15s-.8.85-1,.82a1,1,0,0,0,.78.4c.48,0,.66-.3.91-.3.42,0,1.3.61,1.3,1.07a.87.87,0,0,1-.46.65C18.25,76.58,19.07,76.64,19.23,75.91Zm20.27.63a.87.87,0,0,1-.46-.65c0-.46.88-1.06,1.3-1.06.25,0,.43.3.91.3a1,1,0,0,0,.78-.41c-.2,0-.75.17-1-.82s-.35-1.76.1-2.15a18.22,18.22,0,0,1,3-1.32s0,0,0-.06a.66.66,0,0,1-.54-.55.59.59,0,0,1,.24-.59A3,3,0,0,0,42,68.32c-1.84,0-3.4,2.48-4.14,2.48a.36.36,0,0,1-.32-.19h0c0,.75.39.82.6.82a.67.67,0,0,0,.34-.09v.16a3.44,3.44,0,0,0,.93,1.85c-.42.43-1.46,1.16-1.76.78-.12-.16-.67-1.15-1.4-.36v.06c.42,0,.74.28.63.71-.6-.48-1.41-.4-1.41.69h.06a.75.75,0,0,1,1.05-.14l0,0a.83.83,0,0,0-.75.91.85.85,0,0,0,.25.51c.06-.57.41-.67.69-.67.58,0,1,.53,1.45,0A1.1,1.1,0,0,0,39.5,76.54ZM24.65,62.2c-.06.08-.25,0-.32,0s.24.42.51.42a.48.48,0,0,0,.36-.16s1.08.35,1.61.5a1.9,1.9,0,0,0-.36,1c-.43-.26-2.15-1.19-2.15-1.19l-.54.73c-.09.12-.51-.19-.42-.31l.4-.56c-.13-.14-.46,0-.54,0a.6.6,0,0,1,.77-.3c0-.31-.46-.21-.58-.17a.73.73,0,0,1,.92-.19l.18-.25-.37-.39.23-.32.26.35,2-2.72a1.89,1.89,0,0,1,.6-.22,2.22,2.22,0,0,1,0,.63l-2,2.75.42.14-.23.32L24.91,62Zm7-.44c0,.24.15.61.49.51a.45.45,0,0,1-.78.2.73.73,0,0,0,.2,1l.08.05v.07a.58.58,0,0,1-.81-.15.43.43,0,0,1,0-.07.75.75,0,0,0-.09,1,2.22,2.22,0,0,1-1.88.16A3.34,3.34,0,0,0,27,64c.11-1.08.64-1.36,1.63-1.52.79-.13.89-.49.78-.76a1.54,1.54,0,0,0-.76.17.27.27,0,0,1,0-.3.72.72,0,0,1-.07-.25c.55,0,.65-.13.65-.13.1-.57-.49-.63-.94-.32a.54.54,0,0,1-.17-.43.23.23,0,0,1-.1-.17c0-.13.66-.5.82-.55s.29-.45,1-.39a2.27,2.27,0,0,0-.14-1s0-.08.08,0c.24.15.48.72.65.73a6.81,6.81,0,0,1,.82-.39l.14.9a4.14,4.14,0,0,1,1,.11c.06,0,.06.08,0,.09a2,2,0,0,0-.93.48,2.63,2.63,0,0,1,.17,1.49Z" transform="translate(-3.86 -42.87)" style="fill:#fff"/></svg>